<svg width="640" height="420" viewBox="0 0 640 420" fill="none" xmlns="http://www.w3.org/2000/svg">
  <defs>
    <radialGradient id="bg" cx="50%" cy="40%" r="90%">
      <stop offset="0%" stop-color="#262b27"/>
      <stop offset="55%" stop-color="#191c19"/>
      <stop offset="100%" stop-color="#0d0d0d"/>
    </radialGradient>
    <radialGradient id="glow" cx="50%" cy="45%" r="55%">
      <stop offset="0%" stop-color="#4d7c4d" stop-opacity="0.32"/>
      <stop offset="100%" stop-color="#4d7c4d" stop-opacity="0"/>
    </radialGradient>
    <linearGradient id="greenline" x1="0" y1="0" x2="1" y2="0">
      <stop offset="0%" stop-color="#4d7c4d" stop-opacity="0"/>
      <stop offset="50%" stop-color="#4d7c4d"/>
      <stop offset="100%" stop-color="#4d7c4d" stop-opacity="0"/>
    </linearGradient>
  </defs>
  <rect width="640" height="420" fill="url(#bg)"/>
  <circle cx="320" cy="170" r="180" fill="url(#glow)"/>
  <!-- Circuitos decorativos llenando el lienzo -->
  <g stroke="#4d7c4d" stroke-width="1.4" opacity="0.4">
    <path d="M0 60 H90 l20 20 H140 M500 80 H560 l20 -20 H640"/>
    <path d="M0 100 H70 l15 -15 H120 M560 120 H600 l20 -20 H640"/>
    <path d="M0 330 H100 l20 20 H150 M470 340 H540 l20 20 H640"/>
    <path d="M0 365 H80 l15 -15 H130 M520 380 H590 l20 -20 H640"/>
    <circle cx="140" cy="80" r="4" fill="#4d7c4d" fill-opacity="0.5"/>
    <circle cx="500" cy="120" r="4" fill="#4d7c4d" fill-opacity="0.5"/>
    <circle cx="150" cy="350" r="4" fill="#4d7c4d" fill-opacity="0.5"/>
    <circle cx="540" cy="380" r="4" fill="#4d7c4d" fill-opacity="0.5"/>
  </g>
  <!-- Planta/hoja grande a la izquierda -->
  <g stroke="#4d7c4d" stroke-width="2.5" fill="#4d7c4d">
    <path d="M200 330 C 150 310 150 180 200 90 C 250 180 250 310 200 330 Z" fill-opacity="0.25"/>
    <path d="M200 330 C 250 310 250 240 200 175 C 150 240 150 310 200 330 Z" fill-opacity="0.15"/>
    <path d="M200 330 C 235 310 235 260 200 215 C 165 260 165 310 200 330 Z" fill-opacity="0.35"/>
    <path d="M200 330 V 360" stroke-linecap="round"/>
  </g>
  <!-- Tierra / terreno en la base -->
  <path d="M0 355 Q 80 335 160 350 Q 240 365 320 352 Q 400 339 480 352 Q 560 365 640 348 L 640 420 L 0 420 Z" fill="#4d7c4d" fill-opacity="0.12"/>
  <!-- Sensores tecnológicos a la derecha -->
  <g stroke="#a6a6a6" stroke-width="2.5" fill="none" opacity="0.8">
    <rect x="400" y="120" width="56" height="34" rx="6"/>
    <circle cx="416" cy="137" r="5" fill="#4d7c4d" stroke="none" opacity="0.9"/>
    <circle cx="440" cy="137" r="5" fill="#d9a441" stroke="none" opacity="0.8"/>
    <path d="M428 137 v26 l-14 26 M428 163 l16 26" stroke-linecap="round"/>
  </g>
  <g stroke="#a6a6a6" stroke-width="2" fill="none" opacity="0.6">
    <path d="M330 120 v30 h36 l14 16 M430 90 v20 M470 130 h40 M420 250 h30 l12 12"/>
    <circle cx="430" cy="90" r="4" fill="#4d7c4d" stroke="none" opacity="0.8"/>
    <circle cx="470" cy="130" r="4" fill="#d9a441" stroke="none" opacity="0.8"/>
  </g>
  <g fill="#4d7c4d" opacity="0.5">
    <circle cx="120" cy="80" r="3"/>
    <circle cx="100" cy="120" r="3"/>
  </g>
  <text x="320" y="392" text-anchor="middle" fill="#4d7c4d" font-family="monospace" font-size="18" font-weight="700">NEXT-GEN AGRO</text>
</svg>